<svg xmlns="http://www.w3.org/2000/svg" xmlns:v="https://svgstorm.com"
viewBox = "0 0 300 300"
width="300"
height="300">
<g fill="None" fill-opacity="0.0" stroke="#A1D0FE" stroke-opacity="1.00" stroke-width="0.3"><path d="
M 0.00 300.00 
L 300.00 300.00
L 300.00 0.00
L 0.00 0.00
L 0.00 300.00
M 125.00 134.00 
C 129.91 137.44 141.09 132.00 147.00 134.00 C 152.91 136.00 162.68 131.67 168.00 135.00
C 162.87 135.78 151.44 137.39 146.00 136.00 C 140.56 134.61 126.04 139.34 123.00 135.00
C 120.66 131.66 124.04 123.14 123.00 119.00 C 121.96 114.86 122.95 107.49 124.00 104.00
C 126.31 113.09 124.35 124.16 125.00 134.00
M 175.00 113.00 
C 177.41 116.45 173.81 123.65 175.00 128.00 C 176.19 132.35 174.11 139.40 175.00 144.00
C 170.99 135.44 178.24 120.37 171.00 114.00
C 165.75 112.59 156.43 116.67 150.00 115.00 C 143.57 113.33 135.12 117.03 129.00 114.00
C 142.31 110.03 160.97 111.98 175.00 113.00
M 190.00 169.00 
C 184.52 164.97 170.82 170.98 177.25 176.75 C 183.69 182.51 193.35 180.19 191.07 190.08 C 188.79 199.96 176.49 195.92 171.00 193.00
C 174.45 193.45 191.46 193.08 187.67 185.33 C 183.88 177.58 170.69 182.13 172.01 171.99 C 173.32 161.86 186.18 164.63 190.00 169.00
M 248.00 165.00 
C 266.99 166.43 265.91 197.20 246.00 196.00 C 226.09 194.80 228.31 163.51 248.00 165.00
M 41.00 166.00 
C 41.00 170.33 41.00 174.67 41.00 179.00
C 47.00 179.00 53.00 179.00 59.00 179.00
C 59.00 174.67 59.00 170.33 59.00 166.00
C 64.36 166.70 61.46 174.12 62.00 179.00 C 62.54 183.88 61.59 190.93 62.00 196.00
C 56.04 195.73 60.28 186.21 59.00 182.00
C 53.00 182.00 47.00 182.00 41.00 182.00
C 41.00 186.67 41.00 191.33 41.00 196.00
C 35.93 195.45 37.98 185.52 38.00 181.00 C 38.02 176.48 35.85 166.58 41.00 166.00
M 96.00 168.00 
C 94.94 171.23 83.56 167.65 81.00 169.00
C 79.43 171.24 82.18 176.49 81.00 179.00
C 85.33 179.00 89.67 179.00 94.00 179.00
C 93.99 184.83 84.93 180.81 81.00 182.00
C 81.00 185.67 81.00 189.33 81.00 193.00
C 86.00 193.00 91.00 193.00 96.00 193.00
C 94.60 199.32 83.40 194.48 78.00 196.00
C 78.00 186.00 78.00 176.00 78.00 166.00
C 83.56 167.21 92.85 163.51 96.00 168.00
M 128.00 168.00 
C 126.94 171.23 115.56 167.65 113.00 169.00
C 111.28 171.46 114.29 177.24 113.00 180.00
C 117.33 180.00 121.67 180.00 126.00 180.00
C 129.63 182.06 115.19 184.66 113.00 183.00
C 110.96 185.91 114.53 192.74 113.00 196.00
C 107.64 195.30 110.54 187.88 110.00 183.00 C 109.46 178.12 110.41 171.07 110.00 166.00
C 115.56 167.21 124.85 163.51 128.00 168.00
M 158.00 168.00 
C 154.93 171.07 148.20 166.76 145.00 169.00
C 142.72 171.28 144.64 175.93 144.00 179.00
C 148.63 179.48 153.80 177.92 158.00 180.00
C 155.07 184.12 148.44 181.05 144.00 182.00
C 144.00 185.67 144.00 189.33 144.00 193.00
C 149.33 193.00 154.67 193.00 160.00 193.00
C 158.77 198.72 146.41 195.77 142.00 195.00
C 139.77 192.77 140.76 184.29 141.00 181.00 C 141.24 177.71 139.31 167.88 142.00 166.00
C 144.43 164.30 160.05 165.95 158.00 168.00
M 213.00 196.00 
C 209.38 197.18 211.97 186.51 211.00 184.00 C 210.03 181.49 212.71 171.44 211.00 169.00
C 209.30 170.48 198.17 168.17 202.00 166.00
C 203.92 164.91 209.73 166.00 212.00 166.00 C 214.27 166.00 220.08 164.91 222.00 166.00
C 225.73 168.11 215.60 170.44 214.00 169.00
C 213.34 177.83 215.33 187.99 213.00 196.00 Z"/>
</g>
<g fill="None" fill-opacity="0.0" stroke="#0E2942" stroke-opacity="1.00" stroke-width="0.3"><path d="
M 123.00 135.00 
C 138.00 135.00 153.00 135.00 168.00 135.00
C 162.68 131.67 152.91 136.00 147.00 134.00 C 141.09 132.00 129.91 137.44 125.00 134.00
C 121.75 131.72 124.88 124.08 124.00 120.00 C 123.12 115.92 124.66 108.39 124.00 104.00
C 122.95 107.49 121.96 114.86 123.00 119.00 C 124.04 123.14 120.66 131.66 123.00 135.00 Z"/>
</g>
<g fill="None" fill-opacity="0.0" stroke="#526C88" stroke-opacity="1.00" stroke-width="0.3"><path d="
M 125.00 134.00 
C 124.35 124.16 126.31 113.09 124.00 104.00
C 124.66 108.39 123.12 115.92 124.00 120.00 C 124.88 124.08 121.75 131.72 125.00 134.00 Z"/>
</g>
<g fill="None" fill-opacity="0.0" stroke="#95B4D1" stroke-opacity="1.00" stroke-width="0.3"><path d="
M 171.00 114.00 
C 158.87 109.69 142.52 117.23 130.00 114.00
C 144.09 111.67 160.15 113.66 175.00 113.00
C 160.97 111.98 142.31 110.03 129.00 114.00
C 135.12 117.03 143.57 113.33 150.00 115.00 C 156.43 116.67 165.75 112.59 171.00 114.00 Z"/>
</g>
<g fill="None" fill-opacity="0.0" stroke="#00112E" stroke-opacity="1.00" stroke-width="0.3"><path d="
M 171.00 114.00 
C 178.24 120.37 170.99 135.44 175.00 144.00
C 174.11 139.40 176.19 132.35 175.00 128.00 C 173.81 123.65 177.41 116.45 175.00 113.00
C 160.15 113.66 144.09 111.67 130.00 114.00
C 142.52 117.23 158.87 109.69 171.00 114.00 Z"/>
</g>
<g fill="None" fill-opacity="0.0" stroke="#6A8091" stroke-opacity="1.00" stroke-width="0.3"><path d="
M 168.00 135.00 
C 153.00 135.00 138.00 135.00 123.00 135.00
C 126.04 139.34 140.56 134.61 146.00 136.00 C 151.44 137.39 162.87 135.78 168.00 135.00 Z"/>
</g>
<g fill="None" fill-opacity="0.0" stroke="#111C26" stroke-opacity="1.00" stroke-width="0.3"><path d="
M 190.00 169.00 
C 186.18 164.63 173.32 161.86 172.01 171.99 C 170.69 182.13 183.88 177.58 187.67 185.33 C 191.46 193.08 174.45 193.45 171.00 193.00
C 176.49 195.92 188.79 199.96 191.07 190.08 C 193.35 180.19 183.69 182.51 177.25 176.75 C 170.82 170.98 184.52 164.97 190.00 169.00 Z"/>
</g>
<g fill="None" fill-opacity="0.0" stroke="#0C151E" stroke-opacity="1.00" stroke-width="0.3"><path d="
M 248.00 165.00 
C 228.31 163.51 226.09 194.80 246.00 196.00 C 265.91 197.20 266.99 166.43 248.00 165.00
M 250.00 168.00 
C 264.51 171.10 260.41 196.32 244.93 193.07 C 229.44 189.83 233.08 164.39 250.00 168.00 Z"/>
</g>
<g fill="None" fill-opacity="0.0" stroke="#080C16" stroke-opacity="1.00" stroke-width="0.3"><path d="
M 41.00 166.00 
C 35.85 166.58 38.02 176.48 38.00 181.00 C 37.98 185.52 35.93 195.45 41.00 196.00
C 41.00 191.33 41.00 186.67 41.00 182.00
C 47.00 182.00 53.00 182.00 59.00 182.00
C 60.28 186.21 56.04 195.73 62.00 196.00
C 61.59 190.93 62.54 183.88 62.00 179.00 C 61.46 174.12 64.36 166.70 59.00 166.00
C 59.00 170.33 59.00 174.67 59.00 179.00
C 53.00 179.00 47.00 179.00 41.00 179.00
C 41.00 174.67 41.00 170.33 41.00 166.00 Z"/>
</g>
<g fill="None" fill-opacity="0.0" stroke="#091119" stroke-opacity="1.00" stroke-width="0.3"><path d="
M 81.00 169.00 
C 83.40 165.58 92.43 169.49 96.00 168.00
C 92.85 163.51 83.56 167.21 78.00 166.00
C 78.00 176.00 78.00 186.00 78.00 196.00
C 83.40 194.48 94.60 199.32 96.00 193.00
C 91.00 193.00 86.00 193.00 81.00 193.00
C 81.00 189.33 81.00 185.67 81.00 182.00
C 84.93 180.81 93.99 184.83 94.00 179.00
C 89.67 179.00 85.33 179.00 81.00 179.00
C 82.18 176.49 79.43 171.24 81.00 169.00 Z"/>
</g>
<g fill="None" fill-opacity="0.0" stroke="#04080F" stroke-opacity="1.00" stroke-width="0.3"><path d="
M 113.00 183.00 
C 115.55 179.35 124.95 185.16 126.00 180.00
C 121.67 180.00 117.33 180.00 113.00 180.00
C 114.29 177.24 111.28 171.46 113.00 169.00
C 115.40 165.58 124.43 169.49 128.00 168.00
C 124.85 163.51 115.56 167.21 110.00 166.00
C 110.41 171.07 109.46 178.12 110.00 183.00 C 110.54 187.88 107.64 195.30 113.00 196.00
C 114.53 192.74 110.96 185.91 113.00 183.00 Z"/>
</g>
<g fill="None" fill-opacity="0.0" stroke="#4B637B" stroke-opacity="1.00" stroke-width="0.3"><path d="
M 142.00 195.00 
C 139.74 191.78 143.10 185.08 142.00 181.00 C 140.90 176.92 142.83 170.31 142.00 166.00
C 139.31 167.88 141.24 177.71 141.00 181.00 C 140.76 184.29 139.77 192.77 142.00 195.00 Z"/>
</g>
<g fill="None" fill-opacity="0.0" stroke="#080D17" stroke-opacity="1.00" stroke-width="0.3"><path d="
M 142.00 195.00 
C 146.41 195.77 158.77 198.72 160.00 193.00
C 154.67 193.00 149.33 193.00 144.00 193.00
C 144.00 189.33 144.00 185.67 144.00 182.00
C 148.44 181.05 155.07 184.12 158.00 180.00
C 153.80 177.92 148.63 179.48 144.00 179.00
C 144.64 175.93 142.72 171.28 145.00 169.00
C 148.05 165.95 154.37 169.76 158.00 168.00
C 160.05 165.95 144.43 164.30 142.00 166.00
C 142.83 170.31 140.90 176.92 142.00 181.00 C 143.10 185.08 139.74 191.78 142.00 195.00 Z"/>
</g>
<g fill="None" fill-opacity="0.0" stroke="#445F7F" stroke-opacity="1.00" stroke-width="0.3"><path d="
M 211.00 169.00 
C 208.99 166.13 202.38 170.44 202.00 166.00
C 198.17 168.17 209.30 170.48 211.00 169.00 Z"/>
</g>
<g fill="None" fill-opacity="0.0" stroke="#010408" stroke-opacity="1.00" stroke-width="0.3"><path d="
M 211.00 169.00 
C 212.71 171.44 210.03 181.49 211.00 184.00 C 211.97 186.51 209.38 197.18 213.00 196.00
C 211.65 188.51 214.80 184.87 213.00 177.00 C 211.20 169.13 217.18 167.88 222.00 166.00
C 220.08 164.91 214.27 166.00 212.00 166.00 C 209.73 166.00 203.92 164.91 202.00 166.00
C 202.38 170.44 208.99 166.13 211.00 169.00 Z"/>
</g>
<g fill="None" fill-opacity="0.0" stroke="#4E657C" stroke-opacity="1.00" stroke-width="0.3"><path d="
M 213.00 196.00 
C 215.33 187.99 213.34 177.83 214.00 169.00
C 215.60 170.44 225.73 168.11 222.00 166.00
C 217.18 167.88 211.20 169.13 213.00 177.00 C 214.80 184.87 211.65 188.51 213.00 196.00 Z"/>
</g>
<g fill="None" fill-opacity="0.0" stroke="#476588" stroke-opacity="1.00" stroke-width="0.3"><path d="
M 81.00 169.00 
C 83.56 167.65 94.94 171.23 96.00 168.00
C 92.43 169.49 83.40 165.58 81.00 169.00 Z"/>
</g>
<g fill="None" fill-opacity="0.0" stroke="#476689" stroke-opacity="1.00" stroke-width="0.3"><path d="
M 113.00 169.00 
C 115.56 167.65 126.94 171.23 128.00 168.00
C 124.43 169.49 115.40 165.58 113.00 169.00 Z"/>
</g>
<g fill="None" fill-opacity="0.0" stroke="#466688" stroke-opacity="1.00" stroke-width="0.3"><path d="
M 145.00 169.00 
C 148.20 166.76 154.93 171.07 158.00 168.00
C 154.37 169.76 148.05 165.95 145.00 169.00 Z"/>
</g>
<g fill="None" fill-opacity="0.0" stroke="#9DCCF6" stroke-opacity="1.00" stroke-width="0.3"><path d="
M 250.00 168.00 
C 233.08 164.39 229.44 189.83 244.93 193.07 C 260.41 196.32 264.51 171.10 250.00 168.00 Z"/>
</g>
<g fill="None" fill-opacity="0.0" stroke="#4A637A" stroke-opacity="1.00" stroke-width="0.3"><path d="
M 113.00 183.00 
C 115.19 184.66 129.63 182.06 126.00 180.00
C 124.95 185.16 115.55 179.35 113.00 183.00 Z"/>
</g>
<g fill="#A1D0FE" fill-opacity="1.00" stroke="None">
<path d="
M 0.00 300.00 
L 300.00 300.00
L 300.00 0.00
L 0.00 0.00
L 0.00 300.00
M 125.00 134.00 
C 129.91 137.44 141.09 132.00 147.00 134.00 C 152.91 136.00 162.68 131.67 168.00 135.00
C 162.87 135.78 151.44 137.39 146.00 136.00 C 140.56 134.61 126.04 139.34 123.00 135.00
C 120.66 131.66 124.04 123.14 123.00 119.00 C 121.96 114.86 122.95 107.49 124.00 104.00
C 126.31 113.09 124.35 124.16 125.00 134.00
M 175.00 113.00 
C 177.41 116.45 173.81 123.65 175.00 128.00 C 176.19 132.35 174.11 139.40 175.00 144.00
C 170.99 135.44 178.24 120.37 171.00 114.00
C 165.75 112.59 156.43 116.67 150.00 115.00 C 143.57 113.33 135.12 117.03 129.00 114.00
C 142.31 110.03 160.97 111.98 175.00 113.00
M 190.00 169.00 
C 184.52 164.97 170.82 170.98 177.25 176.75 C 183.69 182.51 193.35 180.19 191.07 190.08 C 188.79 199.96 176.49 195.92 171.00 193.00
C 174.45 193.45 191.46 193.08 187.67 185.33 C 183.88 177.58 170.69 182.13 172.01 171.99 C 173.32 161.86 186.18 164.63 190.00 169.00
M 248.00 165.00 
C 266.99 166.43 265.91 197.20 246.00 196.00 C 226.09 194.80 228.31 163.51 248.00 165.00
M 41.00 166.00 
C 41.00 170.33 41.00 174.67 41.00 179.00
C 47.00 179.00 53.00 179.00 59.00 179.00
C 59.00 174.67 59.00 170.33 59.00 166.00
C 64.36 166.70 61.46 174.12 62.00 179.00 C 62.54 183.88 61.59 190.93 62.00 196.00
C 56.04 195.73 60.28 186.21 59.00 182.00
C 53.00 182.00 47.00 182.00 41.00 182.00
C 41.00 186.67 41.00 191.33 41.00 196.00
C 35.93 195.45 37.98 185.52 38.00 181.00 C 38.02 176.48 35.85 166.58 41.00 166.00
M 96.00 168.00 
C 94.94 171.23 83.56 167.65 81.00 169.00
C 79.43 171.24 82.18 176.49 81.00 179.00
C 85.33 179.00 89.67 179.00 94.00 179.00
C 93.99 184.83 84.93 180.81 81.00 182.00
C 81.00 185.67 81.00 189.33 81.00 193.00
C 86.00 193.00 91.00 193.00 96.00 193.00
C 94.60 199.32 83.40 194.48 78.00 196.00
C 78.00 186.00 78.00 176.00 78.00 166.00
C 83.56 167.21 92.85 163.51 96.00 168.00
M 128.00 168.00 
C 126.94 171.23 115.56 167.65 113.00 169.00
C 111.28 171.46 114.29 177.24 113.00 180.00
C 117.33 180.00 121.67 180.00 126.00 180.00
C 129.63 182.06 115.19 184.66 113.00 183.00
C 110.96 185.91 114.53 192.74 113.00 196.00
C 107.64 195.30 110.54 187.88 110.00 183.00 C 109.46 178.12 110.41 171.07 110.00 166.00
C 115.56 167.21 124.85 163.51 128.00 168.00
M 158.00 168.00 
C 154.93 171.07 148.20 166.76 145.00 169.00
C 142.72 171.28 144.64 175.93 144.00 179.00
C 148.63 179.48 153.80 177.92 158.00 180.00
C 155.07 184.12 148.44 181.05 144.00 182.00
C 144.00 185.67 144.00 189.33 144.00 193.00
C 149.33 193.00 154.67 193.00 160.00 193.00
C 158.77 198.72 146.41 195.77 142.00 195.00
C 139.77 192.77 140.76 184.29 141.00 181.00 C 141.24 177.71 139.31 167.88 142.00 166.00
C 144.43 164.30 160.05 165.95 158.00 168.00
M 213.00 196.00 
C 209.38 197.18 211.97 186.51 211.00 184.00 C 210.03 181.49 212.71 171.44 211.00 169.00
C 209.30 170.48 198.17 168.17 202.00 166.00
C 203.92 164.91 209.73 166.00 212.00 166.00 C 214.27 166.00 220.08 164.91 222.00 166.00
C 225.73 168.11 215.60 170.44 214.00 169.00
C 213.34 177.83 215.33 187.99 213.00 196.00 Z"/>
</g>
<g fill="#0E2942" fill-opacity="1.00" stroke="None">
<path d="
M 123.00 135.00 
C 138.00 135.00 153.00 135.00 168.00 135.00
C 162.68 131.67 152.91 136.00 147.00 134.00 C 141.09 132.00 129.91 137.44 125.00 134.00
C 121.75 131.72 124.88 124.08 124.00 120.00 C 123.12 115.92 124.66 108.39 124.00 104.00
C 122.95 107.49 121.96 114.86 123.00 119.00 C 124.04 123.14 120.66 131.66 123.00 135.00 Z"/>
</g>
<g fill="#526C88" fill-opacity="1.00" stroke="None">
<path d="
M 125.00 134.00 
C 124.35 124.16 126.31 113.09 124.00 104.00
C 124.66 108.39 123.12 115.92 124.00 120.00 C 124.88 124.08 121.75 131.72 125.00 134.00 Z"/>
</g>
<g fill="#95B4D1" fill-opacity="1.00" stroke="None">
<path d="
M 171.00 114.00 
C 158.87 109.69 142.52 117.23 130.00 114.00
C 144.09 111.67 160.15 113.66 175.00 113.00
C 160.97 111.98 142.31 110.03 129.00 114.00
C 135.12 117.03 143.57 113.33 150.00 115.00 C 156.43 116.67 165.75 112.59 171.00 114.00 Z"/>
</g>
<g fill="#00112E" fill-opacity="1.00" stroke="None">
<path d="
M 171.00 114.00 
C 178.24 120.37 170.99 135.44 175.00 144.00
C 174.11 139.40 176.19 132.35 175.00 128.00 C 173.81 123.65 177.41 116.45 175.00 113.00
C 160.15 113.66 144.09 111.67 130.00 114.00
C 142.52 117.23 158.87 109.69 171.00 114.00 Z"/>
</g>
<g fill="#6A8091" fill-opacity="1.00" stroke="None">
<path d="
M 168.00 135.00 
C 153.00 135.00 138.00 135.00 123.00 135.00
C 126.04 139.34 140.56 134.61 146.00 136.00 C 151.44 137.39 162.87 135.78 168.00 135.00 Z"/>
</g>
<g fill="#111C26" fill-opacity="1.00" stroke="None">
<path d="
M 190.00 169.00 
C 186.18 164.63 173.32 161.86 172.01 171.99 C 170.69 182.13 183.88 177.58 187.67 185.33 C 191.46 193.08 174.45 193.45 171.00 193.00
C 176.49 195.92 188.79 199.96 191.07 190.08 C 193.35 180.19 183.69 182.51 177.25 176.75 C 170.82 170.98 184.52 164.97 190.00 169.00 Z"/>
</g>
<g fill="#0C151E" fill-opacity="1.00" stroke="None">
<path d="
M 248.00 165.00 
C 228.31 163.51 226.09 194.80 246.00 196.00 C 265.91 197.20 266.99 166.43 248.00 165.00
M 250.00 168.00 
C 264.51 171.10 260.41 196.32 244.93 193.07 C 229.44 189.83 233.08 164.39 250.00 168.00 Z"/>
</g>
<g fill="#080C16" fill-opacity="1.00" stroke="None">
<path d="
M 41.00 166.00 
C 35.85 166.58 38.02 176.48 38.00 181.00 C 37.98 185.52 35.93 195.45 41.00 196.00
C 41.00 191.33 41.00 186.67 41.00 182.00
C 47.00 182.00 53.00 182.00 59.00 182.00
C 60.28 186.21 56.04 195.73 62.00 196.00
C 61.59 190.93 62.54 183.88 62.00 179.00 C 61.46 174.12 64.36 166.70 59.00 166.00
C 59.00 170.33 59.00 174.67 59.00 179.00
C 53.00 179.00 47.00 179.00 41.00 179.00
C 41.00 174.67 41.00 170.33 41.00 166.00 Z"/>
</g>
<g fill="#091119" fill-opacity="1.00" stroke="None">
<path d="
M 81.00 169.00 
C 83.40 165.58 92.43 169.49 96.00 168.00
C 92.85 163.51 83.56 167.21 78.00 166.00
C 78.00 176.00 78.00 186.00 78.00 196.00
C 83.40 194.48 94.60 199.32 96.00 193.00
C 91.00 193.00 86.00 193.00 81.00 193.00
C 81.00 189.33 81.00 185.67 81.00 182.00
C 84.93 180.81 93.99 184.83 94.00 179.00
C 89.67 179.00 85.33 179.00 81.00 179.00
C 82.18 176.49 79.43 171.24 81.00 169.00 Z"/>
</g>
<g fill="#04080F" fill-opacity="1.00" stroke="None">
<path d="
M 113.00 183.00 
C 115.55 179.35 124.95 185.16 126.00 180.00
C 121.67 180.00 117.33 180.00 113.00 180.00
C 114.29 177.24 111.28 171.46 113.00 169.00
C 115.40 165.58 124.43 169.49 128.00 168.00
C 124.85 163.51 115.56 167.21 110.00 166.00
C 110.41 171.07 109.46 178.12 110.00 183.00 C 110.54 187.88 107.64 195.30 113.00 196.00
C 114.53 192.74 110.96 185.91 113.00 183.00 Z"/>
</g>
<g fill="#4B637B" fill-opacity="1.00" stroke="None">
<path d="
M 142.00 195.00 
C 139.74 191.78 143.10 185.08 142.00 181.00 C 140.90 176.92 142.83 170.31 142.00 166.00
C 139.31 167.88 141.24 177.71 141.00 181.00 C 140.76 184.29 139.77 192.77 142.00 195.00 Z"/>
</g>
<g fill="#080D17" fill-opacity="1.00" stroke="None">
<path d="
M 142.00 195.00 
C 146.41 195.77 158.77 198.72 160.00 193.00
C 154.67 193.00 149.33 193.00 144.00 193.00
C 144.00 189.33 144.00 185.67 144.00 182.00
C 148.44 181.05 155.07 184.12 158.00 180.00
C 153.80 177.92 148.63 179.48 144.00 179.00
C 144.64 175.93 142.72 171.28 145.00 169.00
C 148.05 165.95 154.37 169.76 158.00 168.00
C 160.05 165.95 144.43 164.30 142.00 166.00
C 142.83 170.31 140.90 176.92 142.00 181.00 C 143.10 185.08 139.74 191.78 142.00 195.00 Z"/>
</g>
<g fill="#445F7F" fill-opacity="1.00" stroke="None">
<path d="
M 211.00 169.00 
C 208.99 166.13 202.38 170.44 202.00 166.00
C 198.17 168.17 209.30 170.48 211.00 169.00 Z"/>
</g>
<g fill="#010408" fill-opacity="1.00" stroke="None">
<path d="
M 211.00 169.00 
C 212.71 171.44 210.03 181.49 211.00 184.00 C 211.97 186.51 209.38 197.18 213.00 196.00
C 211.65 188.51 214.80 184.87 213.00 177.00 C 211.20 169.13 217.18 167.88 222.00 166.00
C 220.08 164.91 214.27 166.00 212.00 166.00 C 209.73 166.00 203.92 164.91 202.00 166.00
C 202.38 170.44 208.99 166.13 211.00 169.00 Z"/>
</g>
<g fill="#4E657C" fill-opacity="1.00" stroke="None">
<path d="
M 213.00 196.00 
C 215.33 187.99 213.34 177.83 214.00 169.00
C 215.60 170.44 225.73 168.11 222.00 166.00
C 217.18 167.88 211.20 169.13 213.00 177.00 C 214.80 184.87 211.65 188.51 213.00 196.00 Z"/>
</g>
<g fill="#476588" fill-opacity="1.00" stroke="None">
<path d="
M 81.00 169.00 
C 83.56 167.65 94.94 171.23 96.00 168.00
C 92.43 169.49 83.40 165.58 81.00 169.00 Z"/>
</g>
<g fill="#476689" fill-opacity="1.00" stroke="None">
<path d="
M 113.00 169.00 
C 115.56 167.65 126.94 171.23 128.00 168.00
C 124.43 169.49 115.40 165.58 113.00 169.00 Z"/>
</g>
<g fill="#466688" fill-opacity="1.00" stroke="None">
<path d="
M 145.00 169.00 
C 148.20 166.76 154.93 171.07 158.00 168.00
C 154.37 169.76 148.05 165.95 145.00 169.00 Z"/>
</g>
<g fill="#9DCCF6" fill-opacity="1.00" stroke="None">
<path d="
M 250.00 168.00 
C 233.08 164.39 229.44 189.83 244.93 193.07 C 260.41 196.32 264.51 171.10 250.00 168.00 Z"/>
</g>
<g fill="#4A637A" fill-opacity="1.00" stroke="None">
<path d="
M 113.00 183.00 
C 115.19 184.66 129.63 182.06 126.00 180.00
C 124.95 185.16 115.55 179.35 113.00 183.00 Z"/>
</g>
</svg>